<?xml version="1.0" ?><svg id="Siren" style="enable-background:new 0 0 32 32;" version="1.1" viewBox="0 0 32 32" xml:space="preserve" xmlns="http://www.w3.org/2000/svg" xmlns:xlink="http://www.w3.org/1999/xlink"><style type="text/css">
	.st0{ stroke:#000; stroke-width: 2px; fill: transparent; }
	.st1{ stroke:#000; stroke-width: 2px; fill: transparent; }
	.st2{ stroke:#000; stroke-width: 2px; fill: transparent; }
	.st3{ stroke:#000; stroke-width: 2px; fill: transparent; }
</style><g><path class="st0" d="M23.578,26v-9.001c0-4.179-3.399-7.578-7.578-7.578s-7.578,3.399-7.578,7.578V26H23.578z M16,14.92   c-1.146,0-2.078,0.932-2.078,2.078c0,0.552-0.448,1-1,1s-1-0.447-1-1c0-2.249,1.83-4.078,4.078-4.078c0.552,0,1,0.448,1,1   S16.552,14.92,16,14.92z"/><path class="st1" d="M16,12.92c-2.249,0-4.078,1.83-4.078,4.078c0,0.552,0.448,1,1,1s1-0.447,1-1c0-1.146,0.932-2.078,2.078-2.078   c0.552,0,1-0.448,1-1S16.552,12.92,16,12.92z"/><path class="st2" d="M25,26h-1.422H8.422H7c-0.552,0-1,0.447-1,1s0.448,1,1,1h18c0.553,0,1-0.447,1-1S25.553,26,25,26z"/><path class="st3" d="M16,8.551c0.552,0,1-0.448,1-1V5c0-0.552-0.448-1-1-1s-1,0.448-1,1v2.551C15,8.103,15.448,8.551,16,8.551z"/><path class="st3" d="M29,17.231h-2.506c-0.553,0-1,0.447-1,1s0.447,1,1,1H29c0.553,0,1-0.447,1-1S29.553,17.231,29,17.231z"/><path class="st3" d="M6.506,18.231c0-0.553-0.448-1-1-1H3c-0.552,0-1,0.447-1,1s0.448,1,1,1h2.506   C6.058,19.231,6.506,18.784,6.506,18.231z"/><path class="st3" d="M7.866,11.38c0.196,0.199,0.455,0.299,0.713,0.299c0.253,0,0.506-0.095,0.701-0.287   c0.394-0.387,0.4-1.02,0.013-1.414L7.521,8.175C7.133,7.78,6.5,7.775,6.107,8.162c-0.394,0.387-0.4,1.02-0.013,1.414L7.866,11.38z"/><path class="st3" d="M23.42,11.679c0.259,0,0.518-0.1,0.713-0.299l1.772-1.804c0.388-0.394,0.382-1.027-0.012-1.414   c-0.396-0.387-1.028-0.382-1.414,0.013l-1.772,1.804c-0.388,0.394-0.382,1.027,0.012,1.414   C22.914,11.584,23.167,11.679,23.42,11.679z"/></g></svg>